<svg width="141" height="141" viewBox="0 0 141 141" fill="none" xmlns="http://www.w3.org/2000/svg">
<line x1="16.3306" y1="122.744" x2="94.3306" y2="15.7439" stroke="#2D5BFF" stroke-width="10"/>
<path d="M60.371 117.689C57.6096 117.689 55.371 119.928 55.371 122.689C55.371 125.451 57.6096 127.689 60.371 127.689V117.689ZM60.371 127.689H91.371V117.689H60.371V127.689Z" fill="#2D5BFF"/>
<path d="M127.371 127.689C130.132 127.689 132.371 125.451 132.371 122.689C132.371 119.928 130.132 117.689 127.371 117.689V127.689ZM96.371 127.689H127.371V117.689H96.371V127.689Z" fill="#2D5BFF"/>
<line x1="49.5479" y1="101.467" x2="108.548" y2="31.4669" stroke="#2D5BFF" stroke-width="10"/>
<path d="M107.371 33.6893C114.128 12.1882 108.714 10.6888 92.046 17.4476" stroke="#2D5BFF" stroke-width="10"/>
<path d="M14 117.354C42 138.689 66.371 107.189 42 86.3542" stroke="#2D5BFF" stroke-width="10"/>
</svg>
